<svg width="14" height="14" viewBox="0 0 14 14" fill="none" xmlns="http://www.w3.org/2000/svg">
<path fill-rule="evenodd" clip-rule="evenodd" d="M7.00001 0.333328C10.6819 0.333328 13.6667 3.3181 13.6667 7C13.6667 10.6819 10.6819 13.6667 7.00001 13.6667C3.31811 13.6667 0.333344 10.6819 0.333344 7C0.333344 3.3181 3.31811 0.333328 7.00001 0.333328ZM7.00001 1.66666C4.05449 1.66666 1.66668 4.05448 1.66668 6.99999C1.66668 9.94551 4.05449 12.3333 7.00001 12.3333C9.94553 12.3333 12.3333 9.94551 12.3333 6.99999C12.3333 4.05448 9.94553 1.66666 7.00001 1.66666ZM7.00001 5.66666C7.3682 5.66666 7.66668 5.96514 7.66668 6.33333V10.3333C7.66668 10.7015 7.3682 11 7.00001 11C6.63182 11 6.33334 10.7015 6.33334 10.3333V6.33333C6.33334 5.96514 6.63182 5.66666 7.00001 5.66666ZM7.00001 2.99999C7.3682 2.99999 7.66668 3.29847 7.66668 3.66666C7.66668 4.03485 7.3682 4.33333 7.00001 4.33333C6.63182 4.33333 6.33334 4.03485 6.33334 3.66666C6.33334 3.29847 6.63182 2.99999 7.00001 2.99999Z" fill="#898EA3"/>
</svg>
